<svg enable-background="new 0 0 128 128" viewBox="0 0 128 128" xmlns="http://www.w3.org/2000/svg" xmlns:xlink="http://www.w3.org/1999/xlink"><radialGradient id="a" cx="72.263" cy="49.007" gradientUnits="userSpaceOnUse" r="29.11"><stop offset=".2173" stop-color="#ffd54f"/><stop offset=".86" stop-color="#ffc107"/></radialGradient><radialGradient id="b" cx="34.981" cy="54.123" gradientUnits="userSpaceOnUse" r="83.633"><stop offset=".2636" stop-color="#e3f2fd"/><stop offset=".9167" stop-color="#90caf9"/></radialGradient><path d="m77.98 21.07 9.61-11.11c.89-1.02 2.56-.57 2.82.75l2.77 14.43c.19.97 1.19 1.55 2.12 1.23l13.88-4.82c1.28-.44 2.51.78 2.06 2.06l-4.82 13.88c-.32.93.26 1.94 1.23 2.12l14.43 2.77c1.33.25 1.78 1.93.75 2.82l-11.11 9.61c-.75.65-.75 1.8 0 2.45l11.11 9.61c1.02.89.57 2.56-.75 2.82l-14.43 2.77c-.97.19-1.55 1.19-1.23 2.12l4.82 13.88c.44 1.28-.78 2.51-2.06 2.06l-13.88-4.81c-.93-.32-1.94.26-2.12 1.23l-2.77 14.43c-.25 1.33-1.93 1.78-2.82.75l-9.61-11.12c-.65-.75-1.8-.75-2.45 0l-9.61 11.11c-.89 1.02-2.56.57-2.82-.75l-2.77-14.43c-.19-.97-1.19-1.55-2.12-1.23l-13.88 4.82c-1.28.44-2.51-.78-2.06-2.06l4.82-13.88c.32-.93-.26-1.94-1.23-2.12l-14.43-2.77c-1.33-.25-1.78-1.93-.75-2.82l11.11-9.61c.75-.65.75-1.8 0-2.45l-11.12-9.61c-1.02-.89-.57-2.56.75-2.82l14.43-2.77c.97-.19 1.55-1.19 1.23-2.12l-4.82-13.88c-.44-1.28.78-2.51 2.06-2.06l13.88 4.82c.93.32 1.94-.26 2.12-1.23l2.77-14.43c.25-1.33 1.93-1.78 2.82-.75l9.61 11.11c.65.75 1.81.75 2.46 0z" fill="#f9a825"/><path d="m65.51 14.07 7.75 8.96c.88 1.02 2.15 1.6 3.49 1.6s2.62-.58 3.49-1.6l7.76-8.96 2.23 11.64c.42 2.17 2.32 3.75 4.54 3.75.52 0 1.03-.09 1.52-.26l11.19-3.89-3.89 11.19c-.44 1.27-.31 2.66.36 3.83.67 1.16 1.81 1.97 3.13 2.23l11.64 2.23-8.96 7.75c-1.02.88-1.6 2.15-1.6 3.49s.58 2.62 1.6 3.49l8.96 7.75-11.64 2.23c-1.32.25-2.46 1.06-3.13 2.23-.67 1.16-.8 2.56-.36 3.83l3.89 11.19-11.19-3.89c-.49-.17-1-.26-1.52-.26-2.21 0-4.12 1.58-4.54 3.75l-2.23 11.65-7.75-8.96c-.88-1.02-2.15-1.6-3.49-1.6s-2.62.58-3.49 1.6l-7.76 8.96-2.23-11.64c-.42-2.17-2.32-3.75-4.54-3.75-.52 0-1.03.09-1.52.26l-11.19 3.89 3.89-11.19c.44-1.27.31-2.66-.36-3.83-.67-1.16-1.81-1.97-3.13-2.23l-11.64-2.23 8.96-7.75c1.02-.88 1.6-2.15 1.6-3.49s-.58-2.62-1.6-3.49l-8.96-7.75 11.64-2.23c1.32-.25 2.46-1.06 3.13-2.23.67-1.16.8-2.56.36-3.83l-3.89-11.19 11.19 3.89c.49.17 1 .26 1.52.26 2.21 0 4.12-1.58 4.54-3.75l2.23-11.65m23.3-4.68c-.44 0-.88.18-1.22.56l-9.61 11.11c-.32.37-.77.56-1.23.56s-.9-.19-1.23-.56l-9.6-11.1c-.33-.39-.78-.56-1.22-.56-.73 0-1.44.49-1.6 1.32l-2.77 14.43c-.15.79-.84 1.32-1.59 1.32-.18 0-.36-.03-.53-.09l-13.88-4.82c-.18-.06-.36-.09-.54-.09-1.06 0-1.9 1.06-1.52 2.15l4.82 13.88c.32.93-.26 1.94-1.23 2.12l-14.43 2.77c-1.33.25-1.78 1.93-.75 2.82l11.11 9.61c.75.65.75 1.8 0 2.45l-11.11 9.61c-1.02.89-.57 2.56.75 2.82l14.43 2.77c.97.19 1.55 1.19 1.23 2.12l-4.82 13.88c-.38 1.1.47 2.15 1.52 2.15.18 0 .36-.03.54-.09l13.88-4.82c.18-.06.36-.09.53-.09.75 0 1.44.53 1.59 1.32l2.77 14.43c.16.83.87 1.32 1.6 1.32.44 0 .88-.18 1.22-.56l9.61-11.13c.32-.37.77-.56 1.23-.56s.9.19 1.23.56l9.61 11.11c.33.39.78.56 1.22.56.73 0 1.44-.49 1.6-1.32l2.77-14.43c.15-.79.84-1.32 1.59-1.32.18 0 .36.03.53.09l13.88 4.82c.18.06.36.09.54.09 1.06 0 1.9-1.06 1.52-2.15l-4.82-13.88c-.32-.93.26-1.94 1.23-2.12l14.43-2.77c1.33-.25 1.78-1.93.75-2.82l-11.11-9.61c-.75-.65-.75-1.8 0-2.45l11.11-9.61c1.02-.89.57-2.56-.75-2.82l-14.43-2.77c-.97-.19-1.55-1.19-1.23-2.12l4.82-13.88c.38-1.1-.47-2.15-1.52-2.15-.18 0-.36.03-.54.09l-13.89 4.83c-.18.06-.36.09-.53.09-.75 0-1.44-.53-1.59-1.32l-2.77-14.43c-.16-.83-.87-1.32-1.6-1.32z" fill="#424242" opacity=".2"/><circle cx="76.95" cy="56.04" fill="url(#a)" r="29.68"/><path d="m75.71 83.92c-.47 0-.94.03-1.39.09.36-1.22.56-2.5.56-3.83 0-7.43-6.02-13.45-13.45-13.45-3.16 0-6.06 1.1-8.36 2.93-3.09-5.86-9.24-9.86-16.33-9.86-10.19 0-18.45 8.26-18.45 18.45 0 .37.01.73.03 1.09-7.67.93-13.62 7.47-13.62 15.4 0 8.49 6.81 15.38 15.26 15.53 2.83 4.92 8.47 8.29 14.99 8.34 6.3.05 11.83-3.03 14.82-7.64 2.41 2.63 5.86 4.3 9.71 4.3 5.52 0 10.23-3.39 12.2-8.2 1.26.45 2.61.71 4.03.71 6.59 0 11.93-5.34 11.93-11.93s-5.34-11.93-11.93-11.93z" fill="url(#b)"/><path d="m36.74 62.79c5.75 0 10.99 3.16 13.67 8.26.42.79 1.16 1.35 2.04 1.54.2.04.41.06.62.06.67 0 1.33-.23 1.87-.65 1.87-1.49 4.12-2.27 6.49-2.27 5.76 0 10.45 4.69 10.45 10.45 0 1-.15 2-.44 2.98-.29.97-.07 2.01.58 2.78.57.68 1.42 1.07 2.3 1.07.12 0 .23-.01.35-.02.39-.05.73-.07 1.05-.07 4.92 0 8.93 4 8.93 8.93 0 4.92-4 8.93-8.93 8.93-1.01 0-2.03-.18-3.02-.54-.33-.12-.68-.18-1.01-.18-1.19 0-2.3.71-2.78 1.87-1.57 3.85-5.27 6.34-9.42 6.34-2.88 0-5.55-1.18-7.51-3.33-.57-.63-1.38-.98-2.22-.98-.08 0-.16 0-.25.01-.93.08-1.77.78-2.27 1.56-2.5 3.87-7.16 6.47-12.14 6.47h-.12c-5.25 0-10-2.86-12.41-7.04-.53-.91-1.49-1.58-2.55-1.6-6.79-.12-12.32-5.78-12.32-12.57 0-6.32 4.73-11.68 10.99-12.45 1.57-.19 2.72-1.59 2.63-3.17-.02-.31-.03-.62-.03-.93 0-8.52 6.93-15.45 15.45-15.45m0-3c-10.19 0-18.45 8.26-18.45 18.45 0 .37.01.74.04 1.1-7.68.94-13.63 7.47-13.63 15.4 0 8.49 6.81 15.57 15.26 15.72 2.83 4.92 8.47 8.54 14.99 8.54h.14c6.24 0 11.7-3.27 14.66-7.84 2.41 2.64 5.87 4.21 9.72 4.21 5.52 0 10.23-3.44 12.2-8.25 1.26.45 2.61.69 4.03.69 6.59 0 11.93-5.35 11.93-11.94s-5.33-11.94-11.92-11.94c-.47 0-.94.03-1.39.09.36-1.22.56-2.5.56-3.83 0-7.43-6.02-13.45-13.45-13.45-3.16 0-6.06 1.1-8.36 2.93-3.09-5.88-9.24-9.88-16.33-9.88z" fill="#424242" opacity=".2"/></svg>